<svg width="1200" height="1440" viewBox="0 0 1200 1440" fill="none" xmlns="http://www.w3.org/2000/svg">
  <rect width="1200" height="1440" fill="#DCE9F5"/>
  <rect width="1200" height="1440" fill="url(#sky)"/>
  <path d="M0 1092L179 984L352 1060L505 901L717 1031L950 842L1200 1013V1440H0V1092Z" fill="#28445B"/>
  <path d="M0 1120L174 1017L330 1088L518 850L739 998L967 772L1200 964V1440H0V1120Z" fill="#3B5C78"/>
  <path d="M0 1180L182 1056L360 1126L530 875L739 1015L997 725L1200 939V1440H0V1180Z" fill="#50718F"/>
  <path d="M0 1240L214 1116L396 1184L554 946L799 1106L1058 808L1200 997V1440H0V1240Z" fill="#6C879F"/>
  <path d="M305 822L691 693L756 735L615 1030L556 1086L447 1030L415 917L305 822Z" fill="#D9E1EA"/>
  <path d="M437 737L740 637L807 670L612 1097L532 1136L449 1097L411 971L437 737Z" fill="#8BA0B3"/>
  <path d="M630 617L706 589L825 648L644 1093L591 1112L551 1076L630 617Z" fill="#A6B8C8"/>
  <path d="M600 701L672 673L751 715L690 899L629 926L578 896L600 701Z" fill="#F8FBFF"/>
  <path d="M676 726L704 707L735 721L696 810L663 823L646 801L676 726Z" fill="#E14B38"/>
  <path d="M645 769L675 754L704 771L666 859L625 876L611 848L645 769Z" fill="#CF402F"/>
  <path d="M629 862L668 846L698 861L658 964L617 985L596 952L629 862Z" fill="#132A3F"/>
  <path d="M677 833L725 796L748 805L710 894L684 904L677 833Z" fill="#0E1723"/>
  <path d="M708 738L742 654" stroke="#122437" stroke-width="13" stroke-linecap="round"/>
  <path d="M724 664L766 682" stroke="#122437" stroke-width="13" stroke-linecap="round"/>
  <circle cx="693" cy="698" r="24" fill="#E14B38"/>
  <circle cx="699" cy="692" r="8" fill="#132A3F"/>
  <defs>
    <linearGradient id="sky" x1="600" y1="0" x2="600" y2="1440" gradientUnits="userSpaceOnUse">
      <stop stop-color="#F7FAFF"/>
      <stop offset="0.35" stop-color="#EAF2F9"/>
      <stop offset="1" stop-color="#C3D6E8"/>
    </linearGradient>
  </defs>
</svg>
